<svg xmlns="http://www.w3.org/2000/svg" width="595" height="136" fill="none"><g clip-path="url(#a)"><path fill="#60A5FA" d="M114.37 41.55c-1.88-1.1-4.65-1.57-6.76-.88-2.12.69-4.17 2-5.24 4.03-1.03 1.94-1.76 4.63-.88 6.76a46.51 46.51 0 0 1 2.88 10.2c.35 3.31.35 6.64 0 9.96-.53 3.21-1.38 6.34-2.56 9.37a47.362 47.362 0 0 1-4.79 8.2 46.768 46.768 0 0 1-6.71 6.71 47.362 47.362 0 0 1-8.2 4.79 46.885 46.885 0 0 1-9.45 2.58c-4.4.46-8.88.34-13.28-.17-2.99-.47-5.92-1.18-8.75-2.26-1.21-.57-2.39-1.2-3.52-1.92-1.01-.64-2.16-1-3.35-1.13-1.87-.31-3.81-.02-5.51 1.13-.01 0-.03.02-.04.03-.38.22-.74.46-1.08.73-.11.07-.22.15-.33.22 1.85-2.8 3.86-5.51 5.88-8.15 11.67-14.99 25.09-28.76 39.38-41.26 3.57-3.12 7.22-6.15 10.96-9.06 1.82-1.39 3.67-2.78 5.57-4.11.62-.33 1.22-.74 1.76-1.21 3.5-2.36 7.15-4.51 11-6.13 1.87-.79 3.52-3.39 4.03-5.24.58-2.1.32-4.89-.88-6.76-1.21-1.87-3.01-3.52-5.24-4.03l-1.28-.17c-1.01-.14-2.04-.15-3.03.08-.85.2-1.67.52-2.45.97-2.81 1.19-5.48 2.69-8.07 4.31-12.86-7.28-28.91-9-42.97-4.48-13.69 4.39-25.67 14.19-32.14 27.11-3.87 7.74-5.97 16.17-6 24.84-.02 4.59 4.05 8.98 8.77 8.77 4.77-.21 8.75-3.85 8.77-8.77 0-1.66.1-3.32.28-4.98.53-3.21 1.38-6.35 2.57-9.39 1.32-2.89 2.92-5.63 4.79-8.2 2.01-2.46 4.25-4.71 6.71-6.71 2.57-1.87 5.31-3.47 8.2-4.79 3.03-1.18 6.16-2.04 9.37-2.56 3.31-.35 6.64-.35 9.95 0 1.77.29 3.51.68 5.22 1.16l-.75.6c-10.71 8.67-20.75 18.21-30.19 28.23-8.79 9.32-17.21 19.16-24.39 29.78-2.33 3.45-4.58 7.02-6.27 10.83-1.56 3.51-3.14 7.29-2.89 11.23.2 3.18 1.27 6.03 3.59 8.29 3.27 3.19 7.69 3.51 11.94 2.82 3.06-.5 6.01-1.9 8.76-3.26 1.85-.92 3.65-1.95 5.41-3.03 7.65 3.4 16.33 4.43 24.62 4.42 8.57-.02 16.89-2.09 24.56-5.86 14.18-6.97 25.03-20.84 28.48-36.24 2.38-10.62 1.77-22.06-2.37-32.18-.9-2.2-1.89-3.99-4.03-5.24l-.05.02Z"/><path fill="#1E3EAD" d="M127.1 27.98c1.53-5.57.62-11.93-2.39-16.59-3.12-4.84-7.65-8.14-12.77-9.31l-.54-.12-3.7-.5h-.83c-3.44.01-6.71.83-9.73 2.42-1.01.44-2.02.92-3.05 1.44C85.99 1.89 77.08 0 67.73 0h-.14c-3.89 0-7.73.33-11.48 1C24.23 6.51 0 34.28 0 67.72c0 9.6 2 18.73 5.6 27-.15.31-.29.62-.43.94-1.63 3.67-4.37 9.82-3.92 16.95.4 6.4 2.91 12.01 7.24 16.24 3.08 3 8.52 6.59 16.96 6.59 1.73 0 3.56-.15 5.44-.46 4.55-.74 8.41-2.49 11.98-4.25 7.7 3.04 16.08 4.71 24.85 4.71 37.4 0 67.72-30.32 67.72-67.72 0-13.02-3.68-25.18-10.04-35.5.78-1.47 1.35-2.93 1.71-4.24h-.01Zm-6.33 50.99c-3.45 15.41-14.3 29.27-28.48 36.24-7.67 3.77-15.99 5.84-24.56 5.86-8.3.02-16.97-1.02-24.62-4.42-1.76 1.09-3.55 2.12-5.41 3.03-2.75 1.36-5.7 2.77-8.76 3.26-4.25.69-8.67.37-11.94-2.82-2.31-2.26-3.39-5.1-3.59-8.29-.25-3.94 1.33-7.72 2.89-11.23 1.7-3.81 3.94-7.39 6.27-10.83 7.19-10.62 15.61-20.46 24.39-29.78 9.45-10.03 19.48-19.56 30.19-28.23l.75-.6c-1.72-.49-3.46-.88-5.22-1.16-3.31-.35-6.64-.35-9.95 0-3.21.53-6.34 1.38-9.37 2.56a47.362 47.362 0 0 0-8.2 4.79 46.768 46.768 0 0 0-6.71 6.71 47.362 47.362 0 0 0-4.79 8.2 46.785 46.785 0 0 0-2.57 9.39 48.57 48.57 0 0 0-.28 4.98c-.02 4.92-4 8.56-8.77 8.77-4.72.21-8.79-4.18-8.77-8.77.03-8.67 2.13-17.1 6-24.84 6.47-12.92 18.45-22.72 32.14-27.11 14.07-4.52 30.11-2.8 42.97 4.48 2.59-1.62 5.26-3.12 8.07-4.31.78-.45 1.6-.78 2.45-.97.99-.23 2.02-.22 3.03-.08l1.28.17c2.24.51 4.03 2.16 5.24 4.03 1.2 1.86 1.46 4.66.88 6.76-.51 1.86-2.16 4.45-4.03 5.24-3.85 1.63-7.5 3.77-11 6.13-.54.47-1.14.88-1.76 1.21a177.8 177.8 0 0 0-5.57 4.11c-3.74 2.91-7.39 5.94-10.96 9.06-14.29 12.5-27.71 26.26-39.38 41.26-2.02 2.64-4.03 5.35-5.88 8.15.11-.07.22-.15.33-.22.34-.27.7-.51 1.08-.73.01 0 .03-.02.04-.03 1.69-1.15 3.64-1.44 5.51-1.13 1.19.13 2.34.49 3.35 1.13 1.14.72 2.31 1.35 3.52 1.92 2.83 1.07 5.76 1.79 8.75 2.26 4.4.5 8.88.63 13.28.17 3.24-.53 6.4-1.39 9.45-2.58 2.89-1.32 5.63-2.92 8.2-4.79 2.46-2.01 4.71-4.25 6.71-6.71 1.87-2.57 3.47-5.31 4.79-8.2 1.18-3.03 2.04-6.16 2.56-9.37.35-3.31.35-6.64 0-9.96-.58-3.5-1.54-6.91-2.88-10.2-.87-2.13-.14-4.82.88-6.76 1.07-2.03 3.12-3.34 5.24-4.03 2.11-.68 4.88-.22 6.76.88 2.14 1.25 3.13 3.04 4.03 5.24 4.14 10.11 4.75 21.56 2.37 32.18l.05-.02Z"/><path fill="#60A5FA" d="M219.97 85.57h-26.56l31.43-36.89c1.18-1.48 1.92-3.1 1.92-5.02 0-4.28-3.1-7.67-7.67-7.67h-41.75c-3.98 0-7.38 2.95-7.38 7.23s3.39 7.23 7.38 7.23h25.97l-31.43 36.89c-1.33 1.62-1.92 3.39-1.92 5.46 0 3.69 3.69 7.23 7.38 7.23h42.64c3.98 0 7.38-2.95 7.38-7.23s-3.39-7.23-7.38-7.23h-.01Z"/><path fill="#60A5FA" d="M259.42 34.23c-19.33 0-33.34 14.31-33.34 33.79 0 18.44 11.51 33.79 33.64 33.79 10.18 0 16.67-2.8 21.54-5.9 3.1-1.92 6.34-4.72 6.34-8.85 0-3.69-2.66-6.49-7.08-6.49-2.66 0-4.43 1.33-6.49 2.95-3.39 2.66-7.97 4.28-13.57 4.28-10.18 0-15.05-6.34-15.93-14.02h39.25c4.57 0 6.34-2.95 6.34-5.75 0-19.33-12.25-33.79-30.69-33.79l-.01-.01Zm-14.61 27c.89-7.52 6.49-12.84 14.61-12.84s12.54 6.05 13.87 12.84h-28.48ZM332.01 34.23c-9.15 0-15.49 4.28-19.03 10.77v-1.18c0-5.61-3.84-9-8.85-9s-8.85 3.39-8.85 9v48.54c0 4.87 3.98 8.85 8.85 8.85 4.87 0 8.85-3.98 8.85-8.85V65.51c0-7.82 3.98-15.34 13.87-15.34 9.15 0 13.43 6.79 13.43 15.34v26.85c0 4.87 3.98 8.85 8.85 8.85 4.87 0 8.85-3.98 8.85-8.85V64.62c0-17.71-9.44-30.39-25.97-30.39ZM402.83 36h-11.51V9.38c0-4.87-3.98-8.85-8.85-8.85-4.87 0-8.85 3.98-8.85 8.85V36h-9.89c-4.13 0-7.23 3.25-7.23 7.38s3.1 7.38 7.23 7.38h9.89v41.61c0 4.87 3.98 8.85 8.85 8.85 4.87 0 8.85-3.98 8.85-8.85V50.76h11.51c4.13 0 7.38-3.25 7.38-7.38S406.96 36 402.83 36ZM449.16 34.23c-9.15 0-15.49 4.28-19.03 10.77V9.44c0-4.87-3.98-8.85-8.85-8.85-4.87 0-8.85 3.98-8.85 8.85v82.92c0 4.87 3.98 8.85 8.85 8.85 4.87 0 8.85-3.98 8.85-8.85V65.51c0-7.82 3.98-15.34 13.87-15.34 9.15 0 13.43 6.79 13.43 15.34v26.85c0 4.87 3.98 8.85 8.85 8.85 4.87 0 8.85-3.98 8.85-8.85V64.62c0-17.71-9.44-30.39-25.97-30.39ZM512.9 34.23c-19.92 0-33.79 15.2-33.79 33.79s13.87 33.79 33.79 33.79 33.79-15.2 33.79-33.79-13.87-33.79-33.79-33.79Zm0 52.23c-10.18 0-16.38-8.56-16.38-18.44s6.2-18.44 16.38-18.44 16.38 8.56 16.38 18.44-6.2 18.44-16.38 18.44ZM586.53 34.23c-8.56 0-14.16 4.13-17.26 11.21v-1.62c0-4.87-3.98-9-8.85-9-5.31 0-9 3.69-9 9v48.54c0 4.87 4.13 8.85 9 8.85s8.85-3.98 8.85-8.85V69.34c0-11.95 6.79-19.18 17.26-19.18 4.72 0 7.97-3.54 7.97-7.97s-2.8-7.97-7.97-7.97v.01Z"/></g><defs><clipPath id="a"><path fill="#fff" d="M0 0h594.5v135.44H0z"/></clipPath></defs></svg>
