<svg xmlns="http://www.w3.org/2000/svg" width="182" height="182" fill="none"><g clip-path="url(#a)"><path fill="#60A5FA" d="M153.59 55.81c-2.52-1.48-6.25-2.1-9.08-1.19-2.85.92-5.6 2.69-7.04 5.41-1.38 2.61-2.36 6.21-1.19 9.08 1.81 4.42 3.1 9 3.87 13.7.47 4.45.47 8.92 0 13.37-.71 4.31-1.86 8.51-3.44 12.58a63.105 63.105 0 0 1-6.43 11.01c-2.7 3.3-5.71 6.32-9.02 9.02a62.844 62.844 0 0 1-11.01 6.43c-4.1 1.6-8.35 2.75-12.69 3.46-5.91.62-11.93.45-17.83-.22-4.01-.63-7.95-1.59-11.75-3.03-1.63-.76-3.21-1.62-4.73-2.58-1.36-.85-2.9-1.35-4.5-1.52-2.51-.42-5.12-.02-7.39 1.52-.02.01-.04.02-.05.04-.51.29-1 .61-1.46.97-.15.1-.29.2-.44.29 2.49-3.76 5.19-7.4 7.9-10.94C72.98 103.08 91 84.59 110.2 67.8c4.79-4.19 9.69-8.26 14.72-12.16 2.44-1.87 4.93-3.73 7.47-5.52.83-.45 1.64-1 2.36-1.62 4.7-3.18 9.6-6.05 14.77-8.24 2.52-1.06 4.73-4.55 5.41-7.04.78-2.82.43-6.57-1.19-9.08-1.62-2.51-4.04-4.73-7.04-5.41-.57-.08-1.15-.15-1.72-.23-1.35-.18-2.74-.2-4.07.11-1.14.26-2.24.7-3.29 1.31-3.77 1.59-7.36 3.61-10.84 5.79-17.27-9.78-38.82-12.09-57.71-6.02-18.38 5.9-34.48 19.06-43.17 36.41-5.2 10.4-8.02 21.72-8.06 33.37-.02 6.16 5.43 12.06 11.78 11.78 6.4-.29 11.75-5.17 11.78-11.78 0-2.24.14-4.46.37-6.68.71-4.31 1.86-8.53 3.45-12.6 1.77-3.88 3.92-7.57 6.43-11.01 2.7-3.3 5.71-6.32 9.02-9.02 3.45-2.51 7.13-4.67 11.01-6.43 4.07-1.58 8.28-2.74 12.58-3.44 4.44-.47 8.91-.47 13.36 0 2.37.39 4.71.91 7.02 1.56-.34.27-.67.54-1.01.81-14.39 11.65-27.86 24.45-40.55 37.92-11.8 12.52-23.11 25.74-32.76 40-3.14 4.63-6.15 9.43-8.42 14.55-2.1 4.72-4.21 9.79-3.88 15.08.27 4.27 1.71 8.1 4.82 11.13 4.39 4.29 10.33 4.72 16.04 3.79 4.11-.67 8.07-2.55 11.77-4.38 2.49-1.23 4.9-2.61 7.26-4.07 10.28 4.56 21.93 5.95 33.07 5.93 11.5-.02 22.68-2.81 32.98-7.87 19.04-9.36 33.61-27.98 38.25-48.67 3.19-14.26 2.38-29.63-3.18-43.21-1.21-2.96-2.54-5.36-5.41-7.04l-.03-.01Z"/><path fill="#1E3EAD" d="M170.7 37.58c2.06-7.48.83-16.02-3.21-22.28-4.19-6.49-10.28-10.93-17.15-12.5l-.72-.16-4.97-.67h-1.12c-4.62.02-9.02 1.11-13.07 3.25-1.35.59-2.71 1.23-4.1 1.94C115.46 2.54 103.5 0 90.94 0h-.18c-5.22 0-10.38.45-15.42 1.34C32.54 8.74 0 46.04 0 90.94c0 12.89 2.69 25.16 7.53 36.27-.2.42-.39.84-.58 1.26-2.19 4.93-5.86 13.19-5.26 22.76.54 8.59 3.9 16.13 9.72 21.81 4.14 4.03 11.45 8.84 22.78 8.84 2.33 0 4.78-.21 7.3-.61 6.12-.99 11.3-3.35 16.08-5.71 10.33 4.08 21.59 6.32 33.38 6.32 50.23 0 90.95-40.72 90.95-90.95 0-17.48-4.94-33.81-13.49-47.68 1.04-1.97 1.81-3.93 2.3-5.69l-.01.02Zm-8.51 68.48c-4.63 20.69-19.2 39.31-38.25 48.67-10.3 5.06-21.47 7.85-32.98 7.87-11.14.02-22.79-1.37-33.07-5.93-2.36 1.46-4.77 2.84-7.26 4.07-3.7 1.83-7.65 3.71-11.77 4.38-5.71.93-11.64.49-16.04-3.79-3.11-3.03-4.55-6.85-4.82-11.13-.33-5.3 1.78-10.37 3.88-15.08 2.28-5.12 5.29-9.92 8.42-14.55 9.65-14.26 20.96-27.48 32.76-40C75.75 67.1 89.22 54.3 103.61 42.65c.34-.27.67-.54 1.01-.81-2.3-.65-4.64-1.18-7.02-1.56a64.15 64.15 0 0 0-13.36 0c-4.31.71-8.52 1.86-12.58 3.44a63.105 63.105 0 0 0-11.01 6.43c-3.3 2.7-6.32 5.71-9.02 9.02a62.844 62.844 0 0 0-6.43 11.01 62.538 62.538 0 0 0-3.45 12.6c-.24 2.22-.36 4.45-.37 6.68-.02 6.6-5.38 11.49-11.78 11.78-6.34.28-11.8-5.62-11.78-11.78.04-11.65 2.86-22.97 8.06-33.37 8.69-17.36 24.78-30.51 43.17-36.41 18.89-6.06 40.44-3.76 57.71 6.02 3.47-2.18 7.06-4.2 10.84-5.79 1.05-.61 2.15-1.04 3.29-1.31 1.33-.31 2.71-.29 4.07-.11.57.08 1.15.15 1.72.23 3 .68 5.42 2.9 7.04 5.41 1.61 2.5 1.96 6.26 1.19 9.08-.69 2.49-2.9 5.98-5.41 7.04-5.17 2.18-10.07 5.06-14.77 8.24-.72.63-1.52 1.18-2.36 1.62-2.54 1.79-5.03 3.65-7.47 5.52-5.02 3.91-9.93 7.97-14.72 12.16-19.19 16.78-37.22 35.27-52.89 55.41-2.71 3.54-5.41 7.18-7.9 10.94l.44-.29c.46-.36.95-.69 1.46-.97.02-.01.04-.02.05-.04 2.28-1.54 4.89-1.94 7.39-1.52 1.59.17 3.14.66 4.5 1.52 1.53.96 3.1 1.82 4.73 2.58 3.8 1.44 7.74 2.4 11.75 3.03 5.9.67 11.93.84 17.83.22 4.35-.71 8.59-1.86 12.69-3.46 3.88-1.77 7.57-3.92 11.01-6.43 3.3-2.7 6.32-5.71 9.02-9.02 2.51-3.45 4.67-7.13 6.43-11.01 1.58-4.07 2.74-8.27 3.44-12.58.47-4.45.47-8.92 0-13.37-.77-4.7-2.06-9.29-3.87-13.7-1.17-2.86-.19-6.47 1.19-9.08 1.44-2.72 4.19-4.49 7.04-5.41 2.83-.92 6.55-.29 9.08 1.19 2.87 1.68 4.2 4.08 5.41 7.04 5.56 13.58 6.38 28.95 3.18 43.21l.03.01Z"/></g><defs><clipPath id="a"><path fill="#fff" d="M0 0h181.89v181.89H0z"/></clipPath></defs></svg>
